<svg version="1.1" id="Layer_1" xmlns="http://www.w3.org/2000/svg" xmlns:xlink="http://www.w3.org/1999/xlink" x="0px" y="0px"
	 width="100%" viewBox="0 0 5400 3600" enable-background="new 0 0 5400 3600" xml:space="preserve">
<path fill="#0066cc" opacity="1.000000" stroke="none" 
	d="
M3736.000000,3604.000000 
	C2490.804688,3604.000000 1247.609131,3604.000000 4.206874,3604.000000 
	C4.206874,2404.270996 4.206874,1204.542114 4.206874,4.406538 
	C1803.529175,4.406538 3603.058594,4.406538 5403.293945,4.406538 
	C5403.293945,1203.999634 5403.293945,2403.999756 5403.293945,3604.000000 
	C4848.541016,3604.000000 4293.270508,3604.000000 3736.000000,3604.000000 
M1184.343140,1713.048340 
	C1195.912476,1725.038574 1207.746216,1736.787354 1218.979126,1749.084839 
	C1231.000366,1762.245728 1245.575562,1771.365356 1262.196289,1776.979736 
	C1275.413208,1781.444458 1288.889526,1785.624878 1302.581909,1788.098877 
	C1332.112793,1793.434570 1361.893921,1796.654541 1392.050903,1796.101807 
	C1424.023438,1795.515869 1455.921509,1795.073730 1487.898926,1792.830811 
	C1527.097412,1790.081177 1566.339844,1787.924683 1605.447754,1783.986328 
	C1641.244873,1780.381226 1677.060913,1776.874512 1712.771729,1772.528809 
	C1761.067017,1766.651733 1809.265259,1759.978760 1857.518921,1753.754761 
	C1862.780640,1753.076050 1868.132690,1752.938843 1873.445557,1752.897949 
	C1875.350830,1752.883301 1877.922852,1753.320923 1879.014648,1754.575562 
	C1880.533447,1756.320679 1882.360596,1759.919312 1881.577026,1761.163574 
	C1878.806763,1765.562134 1875.367554,1769.724854 1871.494385,1773.213867 
	C1840.808472,1800.855957 1809.564697,1827.883789 1780.579590,1857.370483 
	C1764.691162,1873.533569 1748.748657,1889.653564 1732.470581,1905.421631 
	C1697.965698,1938.845947 1664.946045,1973.624390 1635.169678,2011.362427 
	C1626.514771,2022.331543 1618.377930,2033.739136 1610.520142,2045.296997 
	C1605.419922,2052.798584 1606.234253,2060.418457 1612.646118,2067.170166 
	C1614.481812,2069.102539 1616.152100,2071.193604 1618.013062,2073.100098 
	C1628.215332,2083.551025 1634.714478,2084.705322 1645.583618,2075.524902 
	C1660.828613,2062.648438 1675.667847,2049.210449 1689.829224,2035.154907 
	C1703.996704,2021.093018 1716.618530,2005.473999 1730.787842,1991.414185 
	C1777.157104,1945.403564 1821.161255,1897.197510 1865.519287,1849.279419 
	C1893.130493,1819.452393 1921.426514,1790.279663 1947.344849,1758.940796 
	C1959.357910,1744.415161 1973.927612,1735.796753 1993.094116,1733.486694 
	C2022.856567,1729.899780 2052.445801,1724.845581 2082.075439,1720.201416 
	C2095.901855,1718.034180 2109.602539,1715.053101 2123.441650,1712.985107 
	C2190.014893,1703.037231 2256.656738,1693.543335 2323.195801,1683.375122 
	C2396.323975,1672.200073 2469.297119,1660.000732 2542.465576,1649.105103 
	C2614.306152,1638.407593 2686.305664,1628.777588 2758.237549,1618.696411 
	C2826.218262,1609.169067 2894.166016,1599.397095 2962.194580,1590.224609 
	C3029.561279,1581.141479 3096.972412,1572.362915 3164.434326,1564.018921 
	C3237.851807,1554.938354 3311.353516,1546.540283 3384.811035,1537.783569 
	C3409.948730,1534.786865 3435.032959,1531.321289 3460.196289,1528.565552 
	C3519.799805,1522.038086 3579.447021,1515.908569 3639.055176,1509.420166 
	C3676.817871,1505.309570 3714.505859,1500.490967 3752.292480,1496.624512 
	C3800.672607,1491.674072 3849.124756,1487.431030 3897.533691,1482.756470 
	C3960.536133,1476.672607 4023.526367,1470.459351 4086.522949,1464.313354 
	C4101.113281,1462.889893 4115.692871,1461.327881 4130.303711,1460.152344 
	C4168.815918,1457.053955 4207.358887,1454.318848 4245.859863,1451.087769 
	C4282.366699,1448.024170 4318.803223,1444.049438 4355.491699,1443.683838 
	C4359.483887,1443.644043 4363.486816,1443.324097 4367.459473,1442.899292 
	C4405.234863,1438.861328 4443.063965,1436.515625 4481.080078,1435.316040 
	C4511.664551,1434.350952 4542.236328,1431.655396 4572.898438,1431.509766 
	C4574.892090,1431.500244 4576.886719,1431.221924 4578.876953,1431.029907 
	C4616.010254,1427.447388 4653.149414,1423.917725 4690.274902,1420.256714 
	C4733.448242,1415.999390 4775.978027,1407.729980 4818.481445,1399.348145 
	C4820.106934,1399.027344 4821.482910,1397.440918 4824.555176,1395.388672 
	C4820.717285,1394.071533 4818.421875,1392.590210 4816.136719,1392.605713 
	C4789.495117,1392.786743 4762.850586,1392.989380 4736.216797,1393.625732 
	C4722.913574,1393.943481 4709.637207,1395.754272 4696.339844,1395.865112 
	C4654.344238,1396.215454 4612.344727,1396.031128 4570.346680,1396.176636 
	C4561.689453,1396.206665 4553.030762,1396.687744 4544.379395,1397.100952 
	C4525.093750,1398.022095 4505.818848,1399.156250 4486.529297,1399.964844 
	C4471.886230,1400.578735 4457.219727,1400.645874 4442.578125,1401.281128 
	C4425.951660,1402.002197 4409.344727,1403.148315 4392.723145,1403.997192 
	C4359.466309,1405.695557 4326.206543,1407.313965 4292.948242,1408.981445 
	C4291.619629,1409.047974 4290.302246,1409.314941 4288.974609,1409.428345 
	C4264.418945,1411.525879 4239.878906,1413.825806 4215.303711,1415.657715 
	C4172.127930,1418.875977 4128.910645,1421.547852 4085.749023,1424.930542 
	C4042.585938,1428.313232 3999.464111,1432.234009 3956.333008,1436.017212 
	C3922.483643,1438.986450 3888.640137,1442.025757 3854.807617,1445.180176 
	C3818.323486,1448.581909 3781.851074,1452.112427 3745.381104,1455.663574 
	C3710.233643,1459.085693 3675.080322,1462.461426 3639.957275,1466.120361 
	C3598.863525,1470.401245 3557.817871,1475.144653 3516.718262,1479.365845 
	C3457.728027,1485.424683 3398.648926,1490.662598 3339.714600,1497.211426 
	C3256.259766,1506.485107 3172.904785,1516.655518 3089.496582,1526.351440 
	C3084.907715,1526.884888 3080.199707,1526.870605 3075.593506,1526.513794 
	C3074.004883,1526.390869 3072.557373,1524.447754 3070.450684,1522.898804 
	C3074.758301,1514.720947 3082.906982,1512.666138 3089.714600,1509.150757 
	C3129.511963,1488.600464 3168.017090,1466.243408 3200.085205,1434.261841 
	C3204.247070,1430.111572 3209.522949,1426.791382 3214.796631,1424.089233 
	C3251.555420,1405.255737 3288.456055,1386.699829 3325.297852,1368.027832 
	C3351.451904,1354.772461 3377.640625,1341.582642 3403.713623,1328.168945 
	C3432.750488,1313.230713 3461.641602,1298.009399 3490.655273,1283.026611 
	C3517.894775,1268.960083 3545.374023,1255.349243 3572.457275,1240.990234 
	C3613.078613,1219.453857 3653.457275,1197.459717 3693.917725,1175.620483 
	C3721.481201,1160.742432 3749.026367,1145.830200 3776.545654,1130.869995 
	C3799.378906,1118.457153 3822.209473,1106.038574 3844.957031,1093.469604 
	C3885.786621,1070.909546 3926.946533,1048.908813 3967.222412,1025.396362 
	C4000.186279,1006.152405 4034.382812,989.969543 4070.251953,977.144287 
	C4090.859863,969.775818 4090.864502,969.788818 4107.921875,981.235413 
	C4108.546387,981.040649 4109.371582,981.034302 4109.760742,980.618835 
	C4111.559570,978.699036 4113.646484,976.891846 4114.895508,974.637451 
	C4126.514648,953.663330 4145.832520,944.280029 4167.945312,938.931396 
	C4175.600586,937.079773 4182.500488,938.328125 4188.608887,943.328918 
	C4191.183594,945.437012 4193.646484,947.690491 4196.066406,949.977295 
	C4218.933594,971.585632 4239.217285,995.435120 4256.470215,1021.709351 
	C4263.194336,1031.949463 4271.653809,1040.231323 4280.793945,1047.991699 
	C4286.541992,1052.872314 4293.384277,1050.719727 4294.185059,1043.513184 
	C4294.982910,1036.331665 4294.746094,1028.925171 4294.047363,1021.705933 
	C4290.771484,987.888489 4286.907227,954.126526 4283.803223,920.294373 
	C4281.933105,899.910278 4279.262207,894.739807 4308.139160,884.090698 
	C4308.764160,883.860107 4309.402344,883.661438 4310.023438,883.421265 
	C4345.458008,869.725647 4380.880371,855.995972 4416.329590,842.338684 
	C4442.446777,832.276855 4468.769531,822.725403 4494.696777,812.198425 
	C4530.488281,797.666504 4567.215332,785.347595 4601.567383,767.352783 
	C4608.044922,763.959595 4615.208984,761.858826 4621.627441,758.372986 
	C4632.132812,752.668152 4642.729980,746.934570 4652.408203,739.986877 
	C4657.573242,736.279053 4661.983887,730.536133 4664.809570,724.768799 
	C4669.844727,714.490479 4665.361816,704.078430 4654.540039,700.710510 
	C4647.700195,698.581848 4640.130859,697.546570 4632.984863,697.910095 
	C4617.695801,698.687988 4602.415527,700.283203 4587.225586,702.266235 
	C4527.087891,710.117188 4466.999023,718.336914 4406.867676,726.236816 
	C4374.489258,730.490479 4342.075684,734.485291 4309.645996,738.328247 
	C4303.088867,739.105286 4296.319336,739.322815 4289.771973,738.629456 
	C4282.275391,737.835388 4278.053711,732.758911 4277.352539,725.190063 
	C4277.047363,721.900269 4277.388184,718.543579 4277.525879,715.221008 
	C4278.326172,695.926086 4279.056152,676.627563 4280.003906,657.339783 
	C4280.689941,643.376221 4281.503906,629.414246 4282.570801,615.475281 
	C4283.994629,596.877869 4286.003418,578.320862 4287.146484,559.708862 
	C4287.505371,553.859619 4286.550293,547.707397 4284.992676,542.023682 
	C4283.340332,535.992432 4279.241699,531.404602 4272.330078,530.897888 
	C4266.378418,530.461548 4262.019043,533.612671 4259.107910,538.371155 
	C4256.695312,542.314819 4254.651855,546.607239 4253.199219,550.994934 
	C4244.611328,576.938110 4235.839355,602.831848 4227.902344,628.976746 
	C4217.640625,662.778503 4207.905762,696.744812 4198.361816,730.757507 
	C4194.955078,742.898926 4189.039551,750.777100 4175.354004,751.710449 
	C4140.134277,754.112427 4104.968262,757.297607 4069.748535,759.701233 
	C4042.509521,761.560303 4015.215576,762.601562 3987.963379,764.287781 
	C3983.640869,764.555237 3979.410400,766.308228 3974.035889,767.649231 
	C3975.501221,771.399963 3976.024170,773.993286 3977.390625,776.016907 
	C3982.977295,784.289001 3991.574707,787.779297 4000.816406,790.085938 
	C4052.116943,802.889771 4091.229248,834.331665 4125.902344,872.333801 
	C4137.287109,884.811768 4135.772461,892.509094 4121.565918,901.056946 
	C4120.995117,901.400269 4120.412598,901.727661 4119.819336,902.030457 
	C4094.306885,915.048462 4069.189209,928.752869 4042.715576,939.952881 
	C3984.415527,964.617615 3926.452393,990.088013 3868.526611,1015.625732 
	C3829.500977,1032.831055 3790.580566,1050.301636 3751.980469,1068.435547 
	C3725.469238,1080.890259 3698.180664,1091.750244 3673.054932,1107.183838 
	C3661.860596,1114.060181 3652.354492,1121.588989 3647.861084,1134.316895 
	C3644.082031,1145.021240 3636.224609,1151.776489 3626.334229,1156.827148 
	C3613.279297,1163.493652 3600.391602,1170.496582 3587.551514,1177.571777 
	C3559.537109,1193.008545 3531.787354,1208.935669 3503.586914,1224.022217 
	C3453.052002,1251.057617 3402.230225,1277.555908 3351.596191,1304.407104 
	C3322.748047,1319.704956 3294.099854,1335.379639 3265.236084,1350.647949 
	C3248.153076,1359.684204 3230.788086,1368.185181 3213.623291,1377.069092 
	C3203.631836,1382.240479 3193.602783,1383.503418 3182.791016,1379.505737 
	C3173.426270,1376.043213 3163.737549,1373.463501 3154.235352,1370.361328 
	C3150.444092,1369.123535 3146.626221,1367.816284 3143.069824,1366.041504 
	C3135.351318,1362.189697 3134.515381,1355.375732 3141.176025,1350.391602 
	C3144.895020,1347.608765 3149.053223,1345.412598 3153.015137,1342.954712 
	C3173.971436,1329.953003 3195.101318,1317.219727 3215.815674,1303.842896 
	C3226.995117,1296.623413 3237.633057,1288.523804 3248.208008,1280.420410 
	C3259.994873,1271.388550 3269.429932,1260.035522 3276.596191,1247.149170 
	C3287.599121,1227.363770 3275.984131,1208.018433 3253.756592,1208.894897 
	C3247.207764,1209.153320 3240.580566,1210.880981 3234.256348,1212.810913 
	C3193.329590,1225.301880 3157.852783,1247.526001 3126.465332,1276.014404 
	C3106.831299,1293.834961 3086.485840,1311.585083 3078.092041,1338.505371 
	C3076.010010,1345.183594 3069.706543,1348.718750 3063.382568,1351.246094 
	C3052.863525,1355.449829 3042.431641,1360.008301 3031.632568,1363.349609 
	C2999.806396,1373.196045 2967.817871,1382.517456 2935.893555,1392.047241 
	C2926.951660,1394.716431 2918.083008,1397.678345 2909.036621,1399.925903 
	C2905.573486,1400.786255 2901.707520,1400.024048 2895.499512,1399.985718 
	C2898.976807,1394.048340 2901.055420,1390.188599 2903.427002,1386.517822 
	C2907.747070,1379.830811 2913.185547,1373.687988 2916.453857,1366.539185 
	C2922.212402,1353.942871 2919.427734,1344.094238 2909.104248,1334.283813 
	C2906.805420,1332.099365 2904.538086,1329.881958 2902.653320,1328.062622 
	C2904.847900,1319.557251 2911.384521,1316.747070 2916.471436,1312.681641 
	C2966.991455,1272.308105 3017.186523,1231.546387 3061.562012,1184.267212 
	C3075.684570,1169.220459 3089.201660,1153.561768 3102.279785,1137.596313 
	C3108.997314,1129.395386 3114.373779,1120.046631 3119.920654,1110.950806 
	C3124.854980,1102.859131 3127.499023,1093.935547 3127.384766,1084.328857 
	C3127.186279,1067.617676 3118.659424,1058.154175 3102.144287,1056.674683 
	C3089.969238,1055.584229 3078.154053,1057.931641 3066.775635,1061.905396 
	C3052.311035,1066.957031 3037.912842,1072.279541 3023.781982,1078.192261 
	C2967.108398,1101.906616 2913.037109,1130.987671 2859.666260,1161.103760 
	C2766.692139,1213.567139 2677.705078,1272.384766 2592.069824,1336.149536 
	C2544.493164,1371.575317 2497.593262,1407.908325 2453.904541,1448.155518 
	C2447.246582,1454.288818 2440.091797,1458.968506 2430.672363,1457.326782 
	C2414.331055,1454.478760 2400.864014,1460.556641 2387.599121,1469.248779 
	C2368.650391,1481.665649 2349.162842,1493.264771 2329.812988,1505.060791 
	C2327.240479,1506.628906 2324.074951,1509.055054 2321.148926,1504.720947 
	C2322.477051,1497.690552 2328.097168,1493.591675 2332.882568,1489.268921 
	C2360.070312,1464.708618 2386.998047,1439.821777 2414.971436,1416.178955 
	C2453.648926,1383.488770 2493.212646,1351.848389 2532.299561,1319.640259 
	C2537.933105,1314.998169 2543.489746,1310.092773 2548.191650,1304.553223 
	C2551.062988,1301.169922 2553.160400,1296.516479 2553.985840,1292.128784 
	C2556.167725,1280.531372 2547.076416,1271.983643 2536.061279,1275.599243 
	C2529.234619,1277.840210 2522.697754,1281.614746 2516.730713,1285.718384 
	C2476.639893,1313.289307 2436.487061,1340.781860 2396.828857,1368.967651 
	C2330.549072,1416.073730 2264.624512,1463.680054 2198.549561,1511.074341 
	C2187.175049,1519.232910 2175.869873,1527.491821 2164.368896,1535.467651 
	C2161.314209,1537.586182 2158.084229,1540.815308 2152.465332,1537.091431 
	C2154.881592,1533.420654 2157.043213,1529.565796 2159.741455,1526.132812 
	C2173.729980,1508.334717 2189.715088,1492.034180 2200.893799,1472.136230 
	C2205.444092,1464.036865 2210.221191,1455.786377 2212.947998,1447.000366 
	C2218.327393,1429.667725 2206.517090,1415.559448 2188.691162,1418.145142 
	C2178.932129,1419.560913 2169.270020,1422.943848 2160.080078,1426.701782 
	C2143.433105,1433.509277 2127.209717,1441.345947 2110.732666,1448.577515 
	C2104.037842,1451.515869 2097.256836,1454.376465 2090.277588,1456.487549 
	C2087.695557,1457.268433 2084.432129,1455.796753 2080.895020,1455.264526 
	C2082.137207,1445.269653 2088.308350,1439.797363 2093.088867,1433.644043 
	C2100.445557,1424.175171 2108.619141,1415.299927 2115.463867,1405.487671 
	C2120.362061,1398.465454 2124.762451,1390.685425 2127.413818,1382.597412 
	C2131.982178,1368.662231 2122.824951,1356.608154 2108.126221,1357.256592 
	C2099.636963,1357.631104 2090.850342,1359.622437 2082.922852,1362.734253 
	C2063.707031,1370.277466 2044.904175,1378.875854 2025.959961,1387.106934 
	C2019.855347,1389.759277 2013.927246,1392.855225 2007.706177,1395.180298 
	C2005.874390,1395.864868 2003.314697,1394.601562 1999.363770,1393.943970 
	C2002.306396,1389.546021 2003.726807,1386.516113 2005.943604,1384.273193 
	C2013.905273,1376.217651 2021.727173,1367.947998 2030.332642,1360.617188 
	C2081.560547,1316.977417 2132.740967,1273.273926 2184.509033,1230.280762 
	C2200.306396,1217.161377 2214.028809,1201.196899 2233.274902,1192.387451 
	C2235.497314,1191.370117 2237.173096,1188.807373 2238.686523,1186.666870 
	C2241.634521,1182.498047 2241.393555,1177.013550 2238.387939,1173.687256 
	C2235.324219,1170.296265 2231.017334,1169.379639 2227.442139,1171.252441 
	C2220.419434,1174.930908 2213.441895,1179.015991 2207.281494,1183.971924 
	C2135.113770,1242.029541 2059.784912,1296.174316 1990.754639,1358.102417 
	C1970.437866,1376.328857 1951.004150,1395.562744 1931.586914,1414.760986 
	C1917.197266,1428.988281 1921.509033,1437.813232 1935.536621,1449.334473 
	C1939.951904,1452.961060 1945.276489,1454.111328 1950.605591,1452.270874 
	C1956.865479,1450.109009 1962.947144,1447.351685 1968.933594,1444.491699 
	C1995.391724,1431.851807 2021.737793,1418.976685 2048.244385,1406.440063 
	C2054.238037,1403.605225 2060.635010,1401.524292 2067.007568,1399.644043 
	C2069.151123,1399.011719 2071.795654,1400.077148 2076.099854,1400.593018 
	C2073.446533,1405.474731 2071.997803,1409.027832 2069.792969,1412.024414 
	C2063.870850,1420.072510 2057.313721,1427.666626 2051.626465,1435.869263 
	C2048.252197,1440.736084 2045.228516,1446.175171 2043.588135,1451.805908 
	C2042.379150,1455.955322 2042.389038,1461.373413 2044.055054,1465.291016 
	C2051.801758,1483.507690 2068.854004,1492.053833 2087.999268,1486.508179 
	C2104.600586,1481.699219 2120.712891,1475.193359 2137.013184,1469.359253 
	C2142.015869,1467.568848 2146.817383,1465.087769 2151.931885,1463.801270 
	C2154.013428,1463.277832 2157.700684,1464.405029 2158.803467,1466.035156 
	C2159.936035,1467.709717 2159.563232,1471.308350 2158.496582,1473.362183 
	C2156.685303,1476.848877 2154.007568,1479.958862 2151.354980,1482.923584 
	C2128.706543,1508.236816 2106.361816,1533.836548 2083.185791,1558.659180 
	C2052.269531,1591.771606 2020.682373,1624.257690 1989.409302,1657.037598 
	C1987.111450,1659.446167 1984.704712,1661.844238 1982.886963,1664.602051 
	C1972.937988,1679.696289 1958.566650,1685.933594 1940.999146,1688.351196 
	C1881.577759,1696.528442 1822.313110,1705.841431 1762.906616,1714.132690 
	C1724.626953,1719.475342 1686.237793,1724.088745 1647.835327,1728.484009 
	C1603.483398,1733.560181 1559.101318,1738.448730 1514.657715,1742.622314 
	C1487.482056,1745.174438 1460.186646,1746.834717 1432.906372,1747.776245 
	C1408.270386,1748.626587 1383.565674,1748.515625 1358.920654,1747.805420 
	C1331.591797,1747.017822 1304.418945,1744.051270 1277.621826,1738.282593 
	C1263.806030,1735.308472 1250.800903,1730.366089 1238.892090,1722.663818 
	C1226.826050,1714.859619 1220.220459,1704.107178 1220.073853,1689.445435 
	C1219.952515,1677.318970 1220.994873,1665.423218 1225.730469,1654.161621 
	C1232.714233,1637.553589 1240.533447,1621.405273 1250.998169,1606.587280 
	C1276.046875,1571.118164 1303.473511,1537.692261 1334.472046,1507.222290 
	C1341.590332,1500.225220 1347.980713,1492.493774 1354.918335,1485.305298 
	C1362.298096,1477.658569 1369.837402,1470.159180 1377.483765,1462.778442 
	C1382.753418,1457.691772 1388.318237,1452.910522 1393.760620,1448.003418 
	C1424.927124,1419.901001 1455.222656,1390.750244 1487.473145,1363.952271 
	C1533.594849,1325.628418 1580.455200,1288.124756 1630.070923,1254.275879 
	C1642.181152,1246.013794 1653.984131,1237.277100 1666.336670,1229.398804 
	C1696.114258,1210.407104 1725.723511,1191.096802 1756.162231,1173.211182 
	C1791.236694,1152.601807 1828.166260,1135.469360 1865.788574,1120.028442 
	C1879.275513,1114.493286 1893.588379,1110.927002 1907.629639,1106.822510 
	C1910.560059,1105.965942 1913.954712,1106.697998 1917.262817,1106.697998 
	C1918.952026,1113.391357 1920.331421,1118.857178 1921.843262,1124.847412 
	C1936.679077,1125.041504 1947.353271,1118.916992 1955.937622,1109.026245 
	C1966.896240,1096.399658 1961.622803,1079.102295 1945.538940,1074.067627 
	C1942.395020,1073.083618 1939.014038,1072.571777 1935.715210,1072.415649 
	C1919.037476,1071.626465 1902.490234,1071.976318 1885.988892,1075.511963 
	C1855.764404,1081.987915 1827.407104,1093.518677 1799.549683,1106.412109 
	C1718.804199,1143.783936 1643.640137,1190.645264 1571.101807,1241.851562 
	C1521.529663,1276.845459 1472.961914,1313.228394 1427.102539,1353.000000 
	C1393.897217,1381.797363 1361.258911,1411.281860 1329.129639,1441.276001 
	C1304.779541,1464.008301 1281.670288,1488.052246 1260.464111,1513.847900 
	C1236.740479,1542.705933 1213.377930,1571.785645 1195.304810,1604.703979 
	C1186.264526,1621.170044 1179.237793,1638.339355 1175.032104,1656.684082 
	C1170.676147,1675.684326 1172.174438,1693.755005 1184.343140,1713.048340 
z"/>
<path fill="#0066cc" opacity="1.000000" stroke="none" 
	d="
M1183.504639,1711.826050 
	C1172.174438,1693.755005 1170.676147,1675.684326 1175.032104,1656.684082 
	C1179.237793,1638.339355 1186.264526,1621.170044 1195.304810,1604.703979 
	C1213.377930,1571.785645 1236.740479,1542.705933 1260.464111,1513.847900 
	C1281.670288,1488.052246 1304.779541,1464.008301 1329.129639,1441.276001 
	C1361.258911,1411.281860 1393.897217,1381.797363 1427.102539,1353.000000 
	C1472.961914,1313.228394 1521.529663,1276.845459 1571.101807,1241.851562 
	C1643.640137,1190.645264 1718.804199,1143.783936 1799.549683,1106.412109 
	C1827.407104,1093.518677 1855.764404,1081.987915 1885.988892,1075.511963 
	C1902.490234,1071.976318 1919.037476,1071.626465 1935.715210,1072.415649 
	C1939.014038,1072.571777 1942.395020,1073.083618 1945.538940,1074.067627 
	C1961.622803,1079.102295 1966.896240,1096.399658 1955.937622,1109.026245 
	C1947.353271,1118.916992 1936.679077,1125.041504 1921.843262,1124.847412 
	C1920.331421,1118.857178 1918.952026,1113.391357 1917.262817,1106.697998 
	C1913.954712,1106.697998 1910.560059,1105.965942 1907.629639,1106.822510 
	C1893.588379,1110.927002 1879.275513,1114.493286 1865.788574,1120.028442 
	C1828.166260,1135.469360 1791.236694,1152.601807 1756.162231,1173.211182 
	C1725.723511,1191.096802 1696.114258,1210.407104 1666.336670,1229.398804 
	C1653.984131,1237.277100 1642.181152,1246.013794 1630.070923,1254.275879 
	C1580.455200,1288.124756 1533.594849,1325.628418 1487.473145,1363.952271 
	C1455.222656,1390.750244 1424.927124,1419.901001 1393.760620,1448.003418 
	C1388.318237,1452.910522 1382.753418,1457.691772 1377.483765,1462.778442 
	C1369.837402,1470.159180 1362.298096,1477.658569 1354.918335,1485.305298 
	C1347.980713,1492.493774 1341.590332,1500.225220 1334.472046,1507.222290 
	C1303.473511,1537.692261 1276.046875,1571.118164 1250.998169,1606.587280 
	C1240.533447,1621.405273 1232.714233,1637.553589 1225.730469,1654.161621 
	C1220.994873,1665.423218 1219.952515,1677.318970 1220.073853,1689.445435 
	C1220.220459,1704.107178 1226.826050,1714.859619 1238.892090,1722.663818 
	C1250.800903,1730.366089 1263.806030,1735.308472 1277.621826,1738.282593 
	C1304.418945,1744.051270 1331.591797,1747.017822 1358.920654,1747.805420 
	C1383.565674,1748.515625 1408.270386,1748.626587 1432.906372,1747.776245 
	C1460.186646,1746.834717 1487.482056,1745.174438 1514.657715,1742.622314 
	C1559.101318,1738.448730 1603.483398,1733.560181 1647.835327,1728.484009 
	C1686.237793,1724.088745 1724.626953,1719.475342 1762.906616,1714.132690 
	C1822.313110,1705.841431 1881.577759,1696.528442 1940.999146,1688.351196 
	C1958.566650,1685.933594 1972.937988,1679.696289 1982.886963,1664.602051 
	C1984.704712,1661.844238 1987.111450,1659.446167 1989.409302,1657.037598 
	C2020.682373,1624.257690 2052.269531,1591.771606 2083.185791,1558.659180 
	C2106.361816,1533.836548 2128.706543,1508.236816 2151.354980,1482.923584 
	C2154.007568,1479.958862 2156.685303,1476.848877 2158.496582,1473.362183 
	C2159.563232,1471.308350 2159.936035,1467.709717 2158.803467,1466.035156 
	C2157.700684,1464.405029 2154.013428,1463.277832 2151.931885,1463.801270 
	C2146.817383,1465.087769 2142.015869,1467.568848 2137.013184,1469.359253 
	C2120.712891,1475.193359 2104.600586,1481.699219 2087.999268,1486.508179 
	C2068.854004,1492.053833 2051.801758,1483.507690 2044.055054,1465.291016 
	C2042.389038,1461.373413 2042.379150,1455.955322 2043.588135,1451.805908 
	C2045.228516,1446.175171 2048.252197,1440.736084 2051.626465,1435.869263 
	C2057.313721,1427.666626 2063.870850,1420.072510 2069.792969,1412.024414 
	C2071.997803,1409.027832 2073.446533,1405.474731 2076.099854,1400.593018 
	C2071.795654,1400.077148 2069.151123,1399.011719 2067.007568,1399.644043 
	C2060.635010,1401.524292 2054.238037,1403.605225 2048.244385,1406.440063 
	C2021.737793,1418.976685 1995.391724,1431.851807 1968.933594,1444.491699 
	C1962.947144,1447.351685 1956.865479,1450.109009 1950.605591,1452.270874 
	C1945.276489,1454.111328 1939.951904,1452.961060 1935.536621,1449.334473 
	C1921.509033,1437.813232 1917.197266,1428.988281 1931.586914,1414.760986 
	C1951.004150,1395.562744 1970.437866,1376.328857 1990.754639,1358.102417 
	C2059.784912,1296.174316 2135.113770,1242.029541 2207.281494,1183.971924 
	C2213.441895,1179.015991 2220.419434,1174.930908 2227.442139,1171.252441 
	C2231.017334,1169.379639 2235.324219,1170.296265 2238.387939,1173.687256 
	C2241.393555,1177.013550 2241.634521,1182.498047 2238.686523,1186.666870 
	C2237.173096,1188.807373 2235.497314,1191.370117 2233.274902,1192.387451 
	C2214.028809,1201.196899 2200.306396,1217.161377 2184.509033,1230.280762 
	C2132.740967,1273.273926 2081.560547,1316.977417 2030.332642,1360.617188 
	C2021.727173,1367.947998 2013.905273,1376.217651 2005.943604,1384.273193 
	C2003.726807,1386.516113 2002.306396,1389.546021 1999.363770,1393.943970 
	C2003.314697,1394.601562 2005.874390,1395.864868 2007.706177,1395.180298 
	C2013.927246,1392.855225 2019.855347,1389.759277 2025.959961,1387.106934 
	C2044.904175,1378.875854 2063.707031,1370.277466 2082.922852,1362.734253 
	C2090.850342,1359.622437 2099.636963,1357.631104 2108.126221,1357.256592 
	C2122.824951,1356.608154 2131.982178,1368.662231 2127.413818,1382.597412 
	C2124.762451,1390.685425 2120.362061,1398.465454 2115.463867,1405.487671 
	C2108.619141,1415.299927 2100.445557,1424.175171 2093.088867,1433.644043 
	C2088.308350,1439.797363 2082.137207,1445.269653 2080.895020,1455.264526 
	C2084.432129,1455.796753 2087.695557,1457.268433 2090.277588,1456.487549 
	C2097.256836,1454.376465 2104.037842,1451.515869 2110.732666,1448.577515 
	C2127.209717,1441.345947 2143.433105,1433.509277 2160.080078,1426.701782 
	C2169.270020,1422.943848 2178.932129,1419.560913 2188.691162,1418.145142 
	C2206.517090,1415.559448 2218.327393,1429.667725 2212.947998,1447.000366 
	C2210.221191,1455.786377 2205.444092,1464.036865 2200.893799,1472.136230 
	C2189.715088,1492.034180 2173.729980,1508.334717 2159.741455,1526.132812 
	C2157.043213,1529.565796 2154.881592,1533.420654 2152.465332,1537.091431 
	C2158.084229,1540.815308 2161.314209,1537.586182 2164.368896,1535.467651 
	C2175.869873,1527.491821 2187.175049,1519.232910 2198.549561,1511.074341 
	C2264.624512,1463.680054 2330.549072,1416.073730 2396.828857,1368.967651 
	C2436.487061,1340.781860 2476.639893,1313.289307 2516.730713,1285.718384 
	C2522.697754,1281.614746 2529.234619,1277.840210 2536.061279,1275.599243 
	C2547.076416,1271.983643 2556.167725,1280.531372 2553.985840,1292.128784 
	C2553.160400,1296.516479 2551.062988,1301.169922 2548.191650,1304.553223 
	C2543.489746,1310.092773 2537.933105,1314.998169 2532.299561,1319.640259 
	C2493.212646,1351.848389 2453.648926,1383.488770 2414.971436,1416.178955 
	C2386.998047,1439.821777 2360.070312,1464.708618 2332.882568,1489.268921 
	C2328.097168,1493.591675 2322.477051,1497.690552 2321.148926,1504.720947 
	C2324.074951,1509.055054 2327.240479,1506.628906 2329.812988,1505.060791 
	C2349.162842,1493.264771 2368.650391,1481.665649 2387.599121,1469.248779 
	C2400.864014,1460.556641 2414.331055,1454.478760 2430.672363,1457.326782 
	C2440.091797,1458.968506 2447.246582,1454.288818 2453.904541,1448.155518 
	C2497.593262,1407.908325 2544.493164,1371.575317 2592.069824,1336.149536 
	C2677.705078,1272.384766 2766.692139,1213.567139 2859.666260,1161.103760 
	C2913.037109,1130.987671 2967.108398,1101.906616 3023.781982,1078.192261 
	C3037.912842,1072.279541 3052.311035,1066.957031 3066.775635,1061.905396 
	C3078.154053,1057.931641 3089.969238,1055.584229 3102.144287,1056.674683 
	C3118.659424,1058.154175 3127.186279,1067.617676 3127.384766,1084.328857 
	C3127.499023,1093.935547 3124.854980,1102.859131 3119.920654,1110.950806 
	C3114.373779,1120.046631 3108.997314,1129.395386 3102.279785,1137.596313 
	C3089.201660,1153.561768 3075.684570,1169.220459 3061.562012,1184.267212 
	C3017.186523,1231.546387 2966.991455,1272.308105 2916.471436,1312.681641 
	C2911.384521,1316.747070 2904.847900,1319.557251 2902.653320,1328.062622 
	C2904.538086,1329.881958 2906.805420,1332.099365 2909.104248,1334.283813 
	C2919.427734,1344.094238 2922.212402,1353.942871 2916.453857,1366.539185 
	C2913.185547,1373.687988 2907.747070,1379.830811 2903.427002,1386.517822 
	C2901.055420,1390.188599 2898.976807,1394.048340 2895.499512,1399.985718 
	C2901.707520,1400.024048 2905.573486,1400.786255 2909.036621,1399.925903 
	C2918.083008,1397.678345 2926.951660,1394.716431 2935.893555,1392.047241 
	C2967.817871,1382.517456 2999.806396,1373.196045 3031.632568,1363.349609 
	C3042.431641,1360.008301 3052.863525,1355.449829 3063.382568,1351.246094 
	C3069.706543,1348.718750 3076.010010,1345.183594 3078.092041,1338.505371 
	C3086.485840,1311.585083 3106.831299,1293.834961 3126.465332,1276.014404 
	C3157.852783,1247.526001 3193.329590,1225.301880 3234.256348,1212.810913 
	C3240.580566,1210.880981 3247.207764,1209.153320 3253.756592,1208.894897 
	C3275.984131,1208.018433 3287.599121,1227.363770 3276.596191,1247.149170 
	C3269.429932,1260.035522 3259.994873,1271.388550 3248.208008,1280.420410 
	C3237.633057,1288.523804 3226.995117,1296.623413 3215.815674,1303.842896 
	C3195.101318,1317.219727 3173.971436,1329.953003 3153.015137,1342.954712 
	C3149.053223,1345.412598 3144.895020,1347.608765 3141.176025,1350.391602 
	C3134.515381,1355.375732 3135.351318,1362.189697 3143.069824,1366.041504 
	C3146.626221,1367.816284 3150.444092,1369.123535 3154.235352,1370.361328 
	C3163.737549,1373.463501 3173.426270,1376.043213 3182.791016,1379.505737 
	C3193.602783,1383.503418 3203.631836,1382.240479 3213.623291,1377.069092 
	C3230.788086,1368.185181 3248.153076,1359.684204 3265.236084,1350.647949 
	C3294.099854,1335.379639 3322.748047,1319.704956 3351.596191,1304.407104 
	C3402.230225,1277.555908 3453.052002,1251.057617 3503.586914,1224.022217 
	C3531.787354,1208.935669 3559.537109,1193.008545 3587.551514,1177.571777 
	C3600.391602,1170.496582 3613.279297,1163.493652 3626.334229,1156.827148 
	C3636.224609,1151.776489 3644.082031,1145.021240 3647.861084,1134.316895 
	C3652.354492,1121.588989 3661.860596,1114.060181 3673.054932,1107.183838 
	C3698.180664,1091.750244 3725.469238,1080.890259 3751.980469,1068.435547 
	C3790.580566,1050.301636 3829.500977,1032.831055 3868.526611,1015.625732 
	C3926.452393,990.088013 3984.415527,964.617615 4042.715576,939.952881 
	C4069.189209,928.752869 4094.306885,915.048462 4119.819336,902.030457 
	C4120.412598,901.727661 4120.995117,901.400269 4121.565918,901.056946 
	C4135.772461,892.509094 4137.287109,884.811768 4125.902344,872.333801 
	C4091.229248,834.331665 4052.116943,802.889771 4000.816406,790.085938 
	C3991.574707,787.779297 3982.977295,784.289001 3977.390625,776.016907 
	C3976.024170,773.993286 3975.501221,771.399963 3974.035889,767.649231 
	C3979.410400,766.308228 3983.640869,764.555237 3987.963379,764.287781 
	C4015.215576,762.601562 4042.509521,761.560303 4069.748535,759.701233 
	C4104.968262,757.297607 4140.134277,754.112427 4175.354004,751.710449 
	C4189.039551,750.777100 4194.955078,742.898926 4198.361816,730.757507 
	C4207.905762,696.744812 4217.640625,662.778503 4227.902344,628.976746 
	C4235.839355,602.831848 4244.611328,576.938110 4253.199219,550.994934 
	C4254.651855,546.607239 4256.695312,542.314819 4259.107910,538.371155 
	C4262.019043,533.612671 4266.378418,530.461548 4272.330078,530.897888 
	C4279.241699,531.404602 4283.340332,535.992432 4284.992676,542.023682 
	C4286.550293,547.707397 4287.505371,553.859619 4287.146484,559.708862 
	C4286.003418,578.320862 4283.994629,596.877869 4282.570801,615.475281 
	C4281.503906,629.414246 4280.689941,643.376221 4280.003906,657.339783 
	C4279.056152,676.627563 4278.326172,695.926086 4277.525879,715.221008 
	C4277.388184,718.543579 4277.047363,721.900269 4277.352539,725.190063 
	C4278.053711,732.758911 4282.275391,737.835388 4289.771973,738.629456 
	C4296.319336,739.322815 4303.088867,739.105286 4309.645996,738.328247 
	C4342.075684,734.485291 4374.489258,730.490479 4406.867676,726.236816 
	C4466.999023,718.336914 4527.087891,710.117188 4587.225586,702.266235 
	C4602.415527,700.283203 4617.695801,698.687988 4632.984863,697.910095 
	C4640.130859,697.546570 4647.700195,698.581848 4654.540039,700.710510 
	C4665.361816,704.078430 4669.844727,714.490479 4664.809570,724.768799 
	C4661.983887,730.536133 4657.573242,736.279053 4652.408203,739.986877 
	C4642.729980,746.934570 4632.132812,752.668152 4621.627441,758.372986 
	C4615.208984,761.858826 4608.044922,763.959595 4601.567383,767.352783 
	C4567.215332,785.347595 4530.488281,797.666504 4494.696777,812.198425 
	C4468.769531,822.725403 4442.446777,832.276855 4416.329590,842.338684 
	C4380.880371,855.995972 4345.458008,869.725647 4310.023438,883.421265 
	C4309.402344,883.661438 4308.764160,883.860107 4308.139160,884.090698 
	C4279.262207,894.739807 4281.933105,899.910278 4283.803223,920.294373 
	C4286.907227,954.126526 4290.771484,987.888489 4294.047363,1021.705933 
	C4294.746094,1028.925171 4294.982910,1036.331665 4294.185059,1043.513184 
	C4293.384277,1050.719727 4286.541992,1052.872314 4280.793945,1047.991699 
	C4271.653809,1040.231323 4263.194336,1031.949463 4256.470215,1021.709351 
	C4239.217285,995.435120 4218.933594,971.585632 4196.066406,949.977295 
	C4193.646484,947.690491 4191.183594,945.437012 4188.608887,943.328918 
	C4182.500488,938.328125 4175.600586,937.079773 4167.945312,938.931396 
	C4145.832520,944.280029 4126.514648,953.663330 4114.895508,974.637451 
	C4113.646484,976.891846 4111.559570,978.699036 4109.760742,980.618835 
	C4109.371582,981.034302 4108.546387,981.040649 4107.921875,981.235352 
	C4090.864502,969.788818 4090.859863,969.775818 4070.251953,977.144287 
	C4034.382812,989.969543 4000.186279,1006.152405 3967.222412,1025.396362 
	C3926.946533,1048.908813 3885.786621,1070.909546 3844.957031,1093.469604 
	C3822.209473,1106.038574 3799.378906,1118.457153 3776.545654,1130.869995 
	C3749.026367,1145.830200 3721.481201,1160.742432 3693.917725,1175.620483 
	C3653.457275,1197.459717 3613.078613,1219.453857 3572.457275,1240.990234 
	C3545.374023,1255.349243 3517.894775,1268.960083 3490.655273,1283.026611 
	C3461.641602,1298.009399 3432.750488,1313.230713 3403.713623,1328.168945 
	C3377.640625,1341.582642 3351.451904,1354.772461 3325.297852,1368.027832 
	C3288.456055,1386.699829 3251.555420,1405.255737 3214.796631,1424.089233 
	C3209.522949,1426.791382 3204.247070,1430.111572 3200.085205,1434.261841 
	C3168.017090,1466.243408 3129.511963,1488.600464 3089.714600,1509.150757 
	C3082.906982,1512.666138 3074.758301,1514.720947 3070.450684,1522.898804 
	C3072.557373,1524.447754 3074.004883,1526.390869 3075.593506,1526.513794 
	C3080.199707,1526.870605 3084.907715,1526.884888 3089.496582,1526.351440 
	C3172.904785,1516.655518 3256.259766,1506.485107 3339.714600,1497.211426 
	C3398.648926,1490.662598 3457.728027,1485.424683 3516.718262,1479.365845 
	C3557.817871,1475.144653 3598.863525,1470.401245 3639.957275,1466.120361 
	C3675.080322,1462.461426 3710.233643,1459.085693 3745.381104,1455.663574 
	C3781.851074,1452.112427 3818.323486,1448.581909 3854.807617,1445.180176 
	C3888.640137,1442.025757 3922.483643,1438.986450 3956.333008,1436.017212 
	C3999.464111,1432.234009 4042.585938,1428.313232 4085.749023,1424.930542 
	C4128.910645,1421.547852 4172.127930,1418.875977 4215.303711,1415.657715 
	C4239.878906,1413.825806 4264.418945,1411.525879 4288.974609,1409.428345 
	C4290.302246,1409.314941 4291.619629,1409.047974 4292.948242,1408.981445 
	C4326.206543,1407.313965 4359.466309,1405.695557 4392.723145,1403.997192 
	C4409.344727,1403.148315 4425.951660,1402.002197 4442.578125,1401.281128 
	C4457.219727,1400.645874 4471.886230,1400.578735 4486.529297,1399.964844 
	C4505.818848,1399.156250 4525.093750,1398.022095 4544.379395,1397.100952 
	C4553.030762,1396.687744 4561.689453,1396.206665 4570.346680,1396.176636 
	C4612.344727,1396.031128 4654.344238,1396.215454 4696.339844,1395.865112 
	C4709.637207,1395.754272 4722.913574,1393.943481 4736.216797,1393.625732 
	C4762.850586,1392.989380 4789.495117,1392.786743 4816.136719,1392.605713 
	C4818.421875,1392.590210 4820.717285,1394.071533 4824.555176,1395.388672 
	C4821.482910,1397.440918 4820.106934,1399.027344 4818.481445,1399.348145 
	C4775.978027,1407.729980 4733.448242,1415.999390 4690.274902,1420.256714 
	C4653.149414,1423.917725 4616.010254,1427.447388 4578.876953,1431.029907 
	C4576.886719,1431.221924 4574.892090,1431.500244 4572.898438,1431.509766 
	C4542.236328,1431.655396 4511.664551,1434.350952 4481.080078,1435.316040 
	C4443.063965,1436.515625 4405.234863,1438.861328 4367.459473,1442.899292 
	C4363.486816,1443.324097 4359.483887,1443.644043 4355.491699,1443.683838 
	C4318.803223,1444.049438 4282.366699,1448.024170 4245.859863,1451.087769 
	C4207.358887,1454.318848 4168.815918,1457.053955 4130.303711,1460.152344 
	C4115.692871,1461.327881 4101.113281,1462.889893 4086.522949,1464.313354 
	C4023.526367,1470.459351 3960.536133,1476.672607 3897.533691,1482.756470 
	C3849.124756,1487.431030 3800.672607,1491.674072 3752.292480,1496.624512 
	C3714.505859,1500.490967 3676.817871,1505.309570 3639.055176,1509.420166 
	C3579.447021,1515.908569 3519.799805,1522.038086 3460.196289,1528.565552 
	C3435.032959,1531.321289 3409.948730,1534.786865 3384.811035,1537.783569 
	C3311.353516,1546.540283 3237.851807,1554.938354 3164.434326,1564.018921 
	C3096.972412,1572.362915 3029.561279,1581.141479 2962.194580,1590.224609 
	C2894.166016,1599.397095 2826.218262,1609.169067 2758.237549,1618.696411 
	C2686.305664,1628.777588 2614.306152,1638.407593 2542.465576,1649.105103 
	C2469.297119,1660.000732 2396.323975,1672.200073 2323.195801,1683.375122 
	C2256.656738,1693.543335 2190.014893,1703.037231 2123.441650,1712.985107 
	C2109.602539,1715.053101 2095.901855,1718.034180 2082.075439,1720.201416 
	C2052.445801,1724.845581 2022.856567,1729.899780 1993.094116,1733.486694 
	C1973.927612,1735.796753 1959.357910,1744.415161 1947.344849,1758.940796 
	C1921.426514,1790.279663 1893.130493,1819.452393 1865.519287,1849.279419 
	C1821.161255,1897.197510 1777.157104,1945.403564 1730.787842,1991.414185 
	C1716.618530,2005.473999 1703.996704,2021.093018 1689.829224,2035.154907 
	C1675.667847,2049.210449 1660.828613,2062.648438 1645.583618,2075.524902 
	C1634.714478,2084.705322 1628.215332,2083.551025 1618.013062,2073.100098 
	C1616.152100,2071.193604 1614.481812,2069.102539 1612.646118,2067.170166 
	C1606.234253,2060.418457 1605.419922,2052.798584 1610.520142,2045.296997 
	C1618.377930,2033.739136 1626.514771,2022.331543 1635.169678,2011.362427 
	C1664.946045,1973.624390 1697.965698,1938.845947 1732.470581,1905.421631 
	C1748.748657,1889.653564 1764.691162,1873.533569 1780.579590,1857.370483 
	C1809.564697,1827.883789 1840.808472,1800.855957 1871.494385,1773.213867 
	C1875.367554,1769.724854 1878.806763,1765.562134 1881.577026,1761.163574 
	C1882.360596,1759.919312 1880.533447,1756.320679 1879.014648,1754.575562 
	C1877.922852,1753.320923 1875.350830,1752.883301 1873.445557,1752.897949 
	C1868.132690,1752.938843 1862.780640,1753.076050 1857.518921,1753.754761 
	C1809.265259,1759.978760 1761.067017,1766.651733 1712.771729,1772.528809 
	C1677.060913,1776.874512 1641.244873,1780.381226 1605.447754,1783.986328 
	C1566.339844,1787.924683 1527.097412,1790.081177 1487.898926,1792.830811 
	C1455.921509,1795.073730 1424.023438,1795.515869 1392.050903,1796.101807 
	C1361.893921,1796.654541 1332.112793,1793.434570 1302.581909,1788.098877 
	C1288.889526,1785.624878 1275.413208,1781.444458 1262.196289,1776.979736 
	C1245.575562,1771.365356 1231.000366,1762.245728 1218.979126,1749.084839 
	C1207.746216,1736.787354 1195.912476,1725.038574 1183.504639,1711.826050 
M2476.042236,1473.964966 
	C2469.113037,1482.443604 2458.415527,1487.991089 2454.503906,1500.671021 
	C2460.392822,1502.621582 2465.376465,1504.003784 2470.150635,1505.910034 
	C2479.865479,1509.788696 2483.418945,1517.002319 2479.661621,1526.685181 
	C2477.527588,1532.184814 2474.415283,1537.525635 2470.770264,1542.175171 
	C2461.151367,1554.444946 2448.653320,1563.276978 2434.785889,1570.212402 
	C2425.994141,1574.609375 2416.987549,1576.290527 2408.121582,1570.706299 
	C2399.642578,1565.365601 2391.622559,1567.083374 2383.538330,1571.371948 
	C2378.828857,1573.870483 2374.066895,1576.273560 2369.401123,1578.850464 
	C2348.711914,1590.277954 2344.094238,1585.175781 2331.161865,1568.833862 
	C2328.927246,1566.010132 2328.524902,1561.518799 2327.915039,1557.695801 
	C2327.421143,1554.600464 2329.054443,1550.960815 2324.085449,1548.758301 
	C2316.774170,1550.147949 2310.273682,1555.008057 2303.284668,1558.652466 
	C2296.198975,1562.347046 2289.538086,1566.884399 2282.355713,1570.359863 
	C2261.260498,1580.567749 2254.583252,1578.876709 2239.869629,1560.426636 
	C2233.476807,1552.410400 2232.629150,1546.992432 2238.045166,1538.657959 
	C2242.009766,1532.557129 2247.236084,1527.286621 2251.741211,1521.521851 
	C2253.736816,1518.968140 2255.977051,1516.227539 2253.005859,1512.017944 
	C2247.413574,1510.907959 2243.649658,1515.025391 2239.547119,1518.109863 
	C2199.068848,1548.542603 2158.467773,1578.814575 2118.210205,1609.536865 
	C2098.082520,1624.897217 2078.549561,1641.039673 2058.857910,1656.965210 
	C2055.431641,1659.735840 2050.561035,1661.930298 2051.858398,1668.009277 
	C2056.764404,1672.045532 2062.117432,1669.419922 2067.126221,1668.659546 
	C2135.654053,1658.257324 2204.145020,1647.612671 2272.671143,1637.198486 
	C2338.557617,1627.185425 2404.429932,1617.064819 2470.389893,1607.555542 
	C2535.028320,1598.236694 2599.761963,1589.575317 2664.467773,1580.727905 
	C2706.726562,1574.949341 2748.985352,1569.160156 2791.289062,1563.722656 
	C2848.127197,1556.416748 2905.012695,1549.477295 2961.867676,1542.300903 
	C2971.783203,1541.049316 2981.696045,1539.658813 2991.520020,1537.844482 
	C2997.284912,1536.780029 3003.983154,1536.403076 3006.896484,1530.070068 
	C3009.622070,1524.145508 3004.723633,1520.160034 3001.954590,1515.796509 
	C2998.155518,1509.809448 2999.165283,1504.215210 3003.663330,1499.351807 
	C3007.257568,1495.465210 3011.185547,1491.730591 3015.510742,1488.709229 
	C3024.792480,1482.225220 3034.168701,1475.799072 3043.964111,1470.142578 
	C3073.390869,1453.150024 3103.067383,1436.590332 3132.569336,1419.727051 
	C3137.545410,1416.882812 3144.026611,1415.472412 3145.716064,1407.047485 
	C3142.343750,1404.841431 3138.638672,1402.436646 3134.952637,1400.002563 
	C3126.654785,1394.522705 3117.469971,1389.988647 3110.300293,1383.297363 
	C3101.274170,1374.873535 3092.971436,1373.670898 3081.386963,1377.863159 
	C3053.207275,1388.060913 3024.740723,1397.620972 2995.970215,1405.996460 
	C2947.347412,1420.151367 2898.308594,1432.920410 2851.772705,1453.369507 
	C2829.823486,1463.014771 2807.945312,1472.821289 2786.011475,1482.501465 
	C2780.546143,1484.913452 2775.147461,1487.685669 2769.434814,1489.273438 
	C2762.377930,1491.234741 2756.377686,1488.520630 2751.739258,1482.851685 
	C2747.949463,1478.220093 2747.755127,1472.517944 2751.810059,1468.365845 
	C2754.580811,1465.529053 2757.799561,1463.082397 2761.022705,1460.743774 
	C2770.732666,1453.699219 2780.690918,1446.990601 2790.284180,1439.793457 
	C2815.325684,1421.006836 2840.306152,1402.135986 2865.107178,1383.034180 
	C2869.775635,1379.438477 2873.699463,1374.785767 2877.521729,1370.246338 
	C2878.453613,1369.139648 2878.311768,1366.085571 2877.418945,1364.775879 
	C2876.505371,1363.436646 2874.108398,1362.700073 2872.276367,1362.509521 
	C2870.372314,1362.311401 2868.258057,1362.790039 2866.422852,1363.474243 
	C2846.455566,1370.919678 2826.160156,1377.608032 2808.523682,1390.193237 
	C2799.304932,1396.771729 2789.789062,1402.948120 2780.251709,1409.063110 
	C2746.595947,1430.641724 2713.274658,1452.791870 2677.262207,1470.414673 
	C2672.479492,1472.755371 2667.778320,1475.419800 2662.757568,1477.084717 
	C2650.259033,1481.229858 2641.119629,1478.156616 2632.740967,1467.656738 
	C2627.513672,1461.105957 2627.204102,1455.642090 2633.029541,1449.895752 
	C2638.210205,1444.785645 2644.092041,1440.301147 2650.040527,1436.069214 
	C2687.206055,1409.629272 2728.682129,1391.177612 2769.837891,1372.240479 
	C2787.448975,1364.136963 2804.749756,1355.848267 2820.314209,1344.069580 
	C2844.227539,1325.972778 2868.843994,1308.795532 2892.564209,1290.454956 
	C2944.781738,1250.079834 2995.542969,1207.939209 3041.394287,1160.312744 
	C3055.683594,1145.469849 3068.543457,1129.218994 3081.594482,1113.234741 
	C3085.741455,1108.156006 3088.739746,1102.022095 3091.613770,1096.057983 
	C3093.912842,1091.287598 3089.780518,1086.730225 3084.307861,1087.479004 
	C3082.335693,1087.748901 3080.318604,1088.057007 3078.459961,1088.729126 
	C3066.563721,1093.030884 3054.501221,1096.960083 3042.888916,1101.934937 
	C3028.817139,1107.963379 3015.013916,1114.660034 3001.313232,1121.505249 
	C2976.886963,1133.709473 2952.069336,1145.273071 2928.412354,1158.843140 
	C2882.181396,1185.361816 2836.226562,1212.415527 2790.932373,1240.498047 
	C2751.314697,1265.061279 2712.130371,1290.436646 2673.917725,1317.119507 
	C2637.329346,1342.668091 2601.931885,1369.963867 2566.583496,1397.234131 
	C2535.993408,1420.833130 2505.968018,1445.191528 2476.042236,1473.964966 
M4348.988770,826.985779 
	C4381.063965,815.838867 4413.230957,804.949524 4445.189453,793.477478 
	C4482.160156,780.206299 4519.004883,766.579529 4555.776367,752.766052 
	C4566.976562,748.558472 4577.816895,743.357056 4588.666504,738.279358 
	C4590.608398,737.370544 4591.791504,734.837952 4595.018066,731.086914 
	C4589.225098,730.712219 4586.033691,730.031921 4582.960938,730.383728 
	C4562.456055,732.731079 4541.957031,735.144897 4521.492676,737.822571 
	C4452.854492,746.803833 4384.231445,755.899536 4315.604004,764.968567 
	C4309.002930,765.840881 4302.384277,766.643494 4295.831543,767.806091 
	C4281.051270,770.428406 4277.184082,774.088379 4276.482422,788.427124 
	C4275.865234,801.039062 4276.421875,813.713135 4276.630859,826.356934 
	C4276.674316,828.984375 4277.241211,831.664001 4277.960938,834.208130 
	C4280.309570,842.510803 4285.798828,845.967712 4294.639648,844.366760 
	C4299.200684,843.540894 4303.666992,842.068298 4308.089355,840.621948 
	C4320.747070,836.481873 4333.360840,832.205933 4348.988770,826.985779 
M4141.334961,779.930176 
	C4116.663574,778.885681 4092.247070,782.088623 4067.782227,784.417664 
	C4064.626221,784.718201 4061.005371,784.957214 4060.360840,790.551453 
	C4063.360107,793.088623 4066.753662,796.097168 4070.289795,798.928040 
	C4089.485840,814.294556 4108.794922,829.535034 4125.484863,847.727478 
	C4129.975586,852.622253 4134.046387,857.914124 4138.677734,862.665466 
	C4145.444336,869.607727 4152.038574,868.775269 4155.896973,859.916138 
	C4161.198242,847.742920 4165.798340,835.247742 4170.282227,822.741028 
	C4173.867676,812.739685 4177.270996,802.629639 4179.941406,792.356079 
	C4182.425781,782.797852 4178.518555,778.119446 4168.934570,778.360352 
	C4160.970215,778.560486 4153.020508,779.345520 4141.334961,779.930176 
M4207.086426,793.411133 
	C4202.687012,805.983154 4198.013672,818.467651 4193.964844,831.151672 
	C4189.827637,844.111084 4181.055176,855.659424 4180.791992,870.776001 
	C4194.388184,870.470581 4206.872070,870.604980 4219.282227,869.712708 
	C4224.446289,869.341431 4229.500000,866.918457 4234.520996,865.188171 
	C4245.972168,861.242310 4252.204590,853.030334 4251.522461,841.004822 
	C4250.469238,822.422974 4248.988281,803.831848 4246.696289,785.367859 
	C4245.559082,776.209045 4238.368652,772.415771 4228.889160,773.863647 
	C4218.734863,775.414612 4211.994629,781.144348 4207.086426,793.411133 
M4261.803223,978.895142 
	C4260.322754,965.709473 4258.854492,952.522400 4257.356445,939.338745 
	C4256.458496,931.437317 4255.810547,923.490479 4254.472656,915.662842 
	C4253.737793,911.364502 4250.361328,908.200867 4245.926270,909.021423 
	C4232.836426,911.443054 4220.208984,915.512390 4208.930664,922.829285 
	C4204.586914,925.647278 4203.787109,930.764038 4206.674805,935.099304 
	C4208.500977,937.840515 4210.697754,940.364563 4212.933105,942.798157 
	C4224.594727,955.495239 4236.283691,968.167603 4248.067383,980.751160 
	C4249.841797,982.646118 4251.952148,984.518555 4254.285156,985.532532 
	C4258.167969,987.220764 4260.458496,985.005310 4261.803223,978.895142 
z"/>
<path fill="#0066cc" opacity="1.000000" stroke="none" 
	d="
M2477.037354,1472.971802 
	C2505.968018,1445.191528 2535.993408,1420.833130 2566.583496,1397.234131 
	C2601.931885,1369.963867 2637.329346,1342.668091 2673.917725,1317.119507 
	C2712.130371,1290.436646 2751.314697,1265.061279 2790.932373,1240.498047 
	C2836.226562,1212.415527 2882.181396,1185.361816 2928.412354,1158.843140 
	C2952.069336,1145.273071 2976.886963,1133.709473 3001.313232,1121.505249 
	C3015.013916,1114.660034 3028.817139,1107.963379 3042.888916,1101.934937 
	C3054.501221,1096.960083 3066.563721,1093.030884 3078.459961,1088.729126 
	C3080.318604,1088.057007 3082.335693,1087.748901 3084.307861,1087.479004 
	C3089.780518,1086.730225 3093.912842,1091.287598 3091.613770,1096.057983 
	C3088.739746,1102.022095 3085.741455,1108.156006 3081.594482,1113.234741 
	C3068.543457,1129.218994 3055.683594,1145.469849 3041.394287,1160.312744 
	C2995.542969,1207.939209 2944.781738,1250.079834 2892.564209,1290.454956 
	C2868.843994,1308.795532 2844.227539,1325.972778 2820.314209,1344.069580 
	C2804.749756,1355.848267 2787.448975,1364.136963 2769.837891,1372.240479 
	C2728.682129,1391.177612 2687.206055,1409.629272 2650.040527,1436.069214 
	C2644.092041,1440.301147 2638.210205,1444.785645 2633.029541,1449.895752 
	C2627.204102,1455.642090 2627.513672,1461.105957 2632.740967,1467.656738 
	C2641.119629,1478.156616 2650.259033,1481.229858 2662.757568,1477.084717 
	C2667.778320,1475.419800 2672.479492,1472.755371 2677.262207,1470.414673 
	C2713.274658,1452.791870 2746.595947,1430.641724 2780.251709,1409.063110 
	C2789.789062,1402.948120 2799.304932,1396.771729 2808.523682,1390.193237 
	C2826.160156,1377.608032 2846.455566,1370.919678 2866.422852,1363.474243 
	C2868.258057,1362.790039 2870.372314,1362.311401 2872.276367,1362.509521 
	C2874.108398,1362.700073 2876.505371,1363.436646 2877.418945,1364.775879 
	C2878.311768,1366.085571 2878.453613,1369.139648 2877.521729,1370.246338 
	C2873.699463,1374.785767 2869.775635,1379.438477 2865.107178,1383.034180 
	C2840.306152,1402.135986 2815.325684,1421.006836 2790.284180,1439.793457 
	C2780.690918,1446.990601 2770.732666,1453.699219 2761.022705,1460.743774 
	C2757.799561,1463.082397 2754.580811,1465.529053 2751.810059,1468.365845 
	C2747.755127,1472.517944 2747.949463,1478.220093 2751.739258,1482.851685 
	C2756.377686,1488.520630 2762.377930,1491.234741 2769.434814,1489.273438 
	C2775.147461,1487.685669 2780.546143,1484.913452 2786.011475,1482.501465 
	C2807.945312,1472.821289 2829.823486,1463.014771 2851.772705,1453.369507 
	C2898.308594,1432.920410 2947.347412,1420.151367 2995.970215,1405.996460 
	C3024.740723,1397.620972 3053.207275,1388.060913 3081.386963,1377.863159 
	C3092.971436,1373.670898 3101.274170,1374.873535 3110.300293,1383.297363 
	C3117.469971,1389.988647 3126.654785,1394.522705 3134.952637,1400.002563 
	C3138.638672,1402.436646 3142.343750,1404.841431 3145.716064,1407.047485 
	C3144.026611,1415.472412 3137.545410,1416.882812 3132.569336,1419.727051 
	C3103.067383,1436.590332 3073.390869,1453.150024 3043.964111,1470.142578 
	C3034.168701,1475.799072 3024.792480,1482.225220 3015.510742,1488.709229 
	C3011.185547,1491.730591 3007.257568,1495.465210 3003.663330,1499.351807 
	C2999.165283,1504.215210 2998.155518,1509.809448 3001.954590,1515.796509 
	C3004.723633,1520.160034 3009.622070,1524.145508 3006.896484,1530.070068 
	C3003.983154,1536.403076 2997.284912,1536.780029 2991.520020,1537.844482 
	C2981.696045,1539.658813 2971.783203,1541.049316 2961.867676,1542.300903 
	C2905.012695,1549.477295 2848.127197,1556.416748 2791.289062,1563.722656 
	C2748.985352,1569.160156 2706.726562,1574.949341 2664.467773,1580.727905 
	C2599.761963,1589.575317 2535.028320,1598.236694 2470.389893,1607.555542 
	C2404.429932,1617.064819 2338.557617,1627.185425 2272.671143,1637.198486 
	C2204.145020,1647.612671 2135.654053,1658.257324 2067.126221,1668.659546 
	C2062.117432,1669.419922 2056.764404,1672.045532 2051.858398,1668.009277 
	C2050.561035,1661.930298 2055.431641,1659.735840 2058.857910,1656.965210 
	C2078.549561,1641.039673 2098.082520,1624.897217 2118.210205,1609.536865 
	C2158.467773,1578.814575 2199.068848,1548.542603 2239.547119,1518.109863 
	C2243.649658,1515.025391 2247.413574,1510.907959 2253.005859,1512.017944 
	C2255.977051,1516.227539 2253.736816,1518.968140 2251.741211,1521.521851 
	C2247.236084,1527.286621 2242.009766,1532.557129 2238.045166,1538.657959 
	C2232.629150,1546.992432 2233.476807,1552.410400 2239.869629,1560.426636 
	C2254.583252,1578.876709 2261.260498,1580.567749 2282.355713,1570.359863 
	C2289.538086,1566.884399 2296.198975,1562.347046 2303.284668,1558.652466 
	C2310.273682,1555.008057 2316.774170,1550.147949 2324.085449,1548.758301 
	C2329.054443,1550.960815 2327.421143,1554.600464 2327.915039,1557.695801 
	C2328.524902,1561.518799 2328.927246,1566.010132 2331.161865,1568.833862 
	C2344.094238,1585.175781 2348.711914,1590.277954 2369.401123,1578.850464 
	C2374.066895,1576.273560 2378.828857,1573.870483 2383.538330,1571.371948 
	C2391.622559,1567.083374 2399.642578,1565.365601 2408.121582,1570.706299 
	C2416.987549,1576.290527 2425.994141,1574.609375 2434.785889,1570.212402 
	C2448.653320,1563.276978 2461.151367,1554.444946 2470.770264,1542.175171 
	C2474.415283,1537.525635 2477.527588,1532.184814 2479.661621,1526.685181 
	C2483.418945,1517.002319 2479.865479,1509.788696 2470.150635,1505.910034 
	C2465.376465,1504.003784 2460.392822,1502.621582 2454.503906,1500.671021 
	C2458.415527,1487.991089 2469.113037,1482.443604 2477.037354,1472.971802 
z"/>
<path fill="#0066cc" opacity="1.000000" stroke="none" 
	d="
M4347.490234,827.484619 
	C4333.360840,832.205933 4320.747070,836.481873 4308.089355,840.621948 
	C4303.666992,842.068298 4299.200684,843.540894 4294.639648,844.366760 
	C4285.798828,845.967712 4280.309570,842.510803 4277.960938,834.208130 
	C4277.241211,831.664001 4276.674316,828.984375 4276.630859,826.356934 
	C4276.421875,813.713135 4275.865234,801.039062 4276.482422,788.427124 
	C4277.184082,774.088379 4281.051270,770.428406 4295.831543,767.806091 
	C4302.384277,766.643494 4309.002930,765.840881 4315.604004,764.968567 
	C4384.231445,755.899536 4452.854492,746.803833 4521.492676,737.822571 
	C4541.957031,735.144897 4562.456055,732.731079 4582.960938,730.383728 
	C4586.033691,730.031921 4589.225098,730.712219 4595.018066,731.086914 
	C4591.791504,734.837952 4590.608398,737.370544 4588.666504,738.279358 
	C4577.816895,743.357056 4566.976562,748.558472 4555.776367,752.766052 
	C4519.004883,766.579529 4482.160156,780.206299 4445.189453,793.477478 
	C4413.230957,804.949524 4381.063965,815.838867 4347.490234,827.484619 
z"/>
<path fill="#0066cc" opacity="1.000000" stroke="none" 
	d="
M4143.199219,779.900818 
	C4153.020508,779.345520 4160.970215,778.560486 4168.934570,778.360352 
	C4178.518555,778.119446 4182.425781,782.797852 4179.941406,792.356079 
	C4177.270996,802.629639 4173.867676,812.739685 4170.282227,822.741028 
	C4165.798340,835.247742 4161.198242,847.742920 4155.896973,859.916138 
	C4152.038574,868.775269 4145.444336,869.607727 4138.677734,862.665466 
	C4134.046387,857.914124 4129.975586,852.622253 4125.484863,847.727478 
	C4108.794922,829.535034 4089.485840,814.294556 4070.289795,798.928040 
	C4066.753662,796.097168 4063.360107,793.088623 4060.360840,790.551453 
	C4061.005371,784.957214 4064.626221,784.718201 4067.782227,784.417664 
	C4092.247070,782.088623 4116.663574,778.885681 4143.199219,779.900818 
z"/>
<path fill="#0066cc" opacity="1.000000" stroke="none" 
	d="
M4207.657227,791.991638 
	C4211.994629,781.144348 4218.734863,775.414612 4228.889160,773.863647 
	C4238.368652,772.415771 4245.559082,776.209045 4246.696289,785.367859 
	C4248.988281,803.831848 4250.469238,822.422974 4251.522461,841.004822 
	C4252.204590,853.030334 4245.972168,861.242310 4234.520996,865.188171 
	C4229.500000,866.918457 4224.446289,869.341431 4219.282227,869.712708 
	C4206.872070,870.604980 4194.388184,870.470581 4180.791992,870.776001 
	C4181.055176,855.659424 4189.827637,844.111084 4193.964844,831.151672 
	C4198.013672,818.467651 4202.687012,805.983154 4207.657227,791.991638 
z"/>
<path fill="#0066cc" opacity="1.000000" stroke="none" 
	d="
M4261.681641,980.097046 
	C4260.458496,985.005310 4258.167969,987.220764 4254.285156,985.532532 
	C4251.952148,984.518555 4249.841797,982.646118 4248.067383,980.751160 
	C4236.283691,968.167603 4224.594727,955.495239 4212.933105,942.798157 
	C4210.697754,940.364563 4208.500977,937.840515 4206.674805,935.099304 
	C4203.787109,930.764038 4204.586914,925.647278 4208.930664,922.829285 
	C4220.208984,915.512390 4232.836426,911.443054 4245.926270,909.021423 
	C4250.361328,908.200867 4253.737793,911.364502 4254.472656,915.662842 
	C4255.810547,923.490479 4256.458496,931.437317 4257.356445,939.338745 
	C4258.854492,952.522400 4260.322754,965.709473 4261.681641,980.097046 
z"/>
</svg>